# xmcd CD database file
#
# Track frame offsets:
#	150
#	28929
#	60197
#	94970
#	123961
#	152548
#	197961
#	231720
#
# Disc length: 3478 seconds
#
# Revision: 0
# Processed by: cddbd v1.5.2PL0 Copyright (c) Steve Scherf et al.
# Submitted via: CDex 1.70beta2
#
DISCID=690d9408
DTITLE=Govanni Tommaso - jazzitaliano live 2007 Apogeo
DYEAR=2007
DGENRE=Jazz
TTITLE0=Illusione grigio
TTITLE1=Tempi duri
TTITLE2=Giro_vagando
TTITLE3=Men at work
TTITLE4=Bambini salvate la terra
TTITLE5=Planetam trigeminum
TTITLE6=Waltz for Lucca
TTITLE7=Maestrada
EXTD=YEAR: 2007
EXTT0=
EXTT1=
EXTT2=
EXTT3=
EXTT4=
EXTT5=
EXTT6=
EXTT7=
PLAYORDER=
